<?xml version="1.0" standalone="no"?>
<svg xmlns="http://www.w3.org/2000/svg" viewBox="0 0 139 73" width="139" height="73"><g fill="#16C79A" color="#16C79A" transform="translate(47.12 0) scale(0.2332152) "><svg width="188.667" height="188.0" x="0.0" y="0.0" viewBox="0 0 188.667 188"><polygon points="35.528,54.748 49.431,25.948 51.02,22.655 23.874,9.554 6.046,46.487 33.192,59.586 "></polygon><path d="M78.233,76.115c1.914,0.97,5.419,2.357,9.501,3.64c5.607,1.761,12.308,3.322,17.526,3.322c1.127,0,2.175-0.082,3.136-0.241  c1.969-0.326,3.547-1.005,4.491-2.173c11.727-12.889-21.541-14.124-24.562-20.555c2.05-1.993,4.966-2.778,8.284-2.778  c9.372,0,21.945,6.263,27.233,9.226c7.026,3.932,13.503,8.823,19.435,14.255c2.775,3.075,6.796,7.611,10.877,7.611  c1.297,0,2.601-0.458,3.872-1.568c-0.034,0.029-0.065,0.058-0.096,0.084c0.03-0.026,0.064-0.055,0.101-0.086  c10.653-9.103-21.062-33.009-27.691-38.319C116.373,37.337,99.2,27.256,80.778,27.256c-0.531,0-1.062,0.009-1.595,0.025  c-3.066,0.099-14.628,4.553-17.742,4.553c-0.26,0-0.46-0.031-0.593-0.098l-8.538-4.328L38.379,56.271  C51.502,63.295,64.69,70.336,78.233,76.115z"></path><path d="M136.607,126.501l-26.47-40.97c-1.417,0.358-3.039,0.545-4.877,0.545c-6.212,0-14.438-2.071-20.771-4.226L60.603,97.279  l18.879,29.222H7.184v59h178v-59H136.607z M179.184,179.501h-166v-47h70.174l13.027,20.163H56.489v7h81.847v-7h-27.784  l30.311-19.576l-0.379-0.587h38.7V179.501z"></path></svg></g><path fill="#19456B" fill-rule="nonzero" d="M6.31 4.58L6.31 4.58L9.48 10.01L14.50 1.54L12.55 1.30Q12.46 0.94 12.55 0.41L12.55 0.41Q13.87 0.50 15.19 0.50L15.19 0.50Q16.34 0.50 17.88 0.43L17.88 0.43Q18.02 0.86 17.88 1.30L17.88 1.30L16.39 1.58Q15.36 2.76 14.81 3.72L14.81 3.72L10.10 11.40L10.10 18.53L12.05 18.77Q12.14 19.13 12.05 19.66L12.05 19.66Q10.54 19.58 8.76 19.58L8.76 19.58Q7.46 19.58 5.45 19.63L5.45 19.63Q5.30 19.20 5.45 18.77L5.45 18.77L7.44 18.48Q7.54 17.57 7.54 15.67L7.54 15.67L7.54 11.33L1.80 1.54L0.10 1.30Q0 0.94 0.10 0.41L0.10 0.41Q1.42 0.50 3.70 0.50L3.70 0.50Q5.78 0.50 7.34 0.43L7.34 0.43Q7.49 0.86 7.34 1.30L7.34 1.30L4.99 1.75Q5.74 3.60 6.31 4.58ZM15.84 13.20L15.84 13.20Q15.84 11.76 16.26 10.50Q16.68 9.24 17.47 8.30Q18.26 7.37 19.38 6.83Q20.50 6.29 21.89 6.29L21.89 6.29Q23.26 6.29 24.38 6.83Q25.51 7.37 26.32 8.30Q27.12 9.24 27.55 10.50Q27.98 11.76 27.98 13.20L27.98 13.20Q27.98 14.69 27.54 15.94Q27.10 17.18 26.29 18.11Q25.49 19.03 24.36 19.55Q23.23 20.06 21.89 20.06L21.89 20.06Q20.47 20.06 19.36 19.56Q18.24 19.06 17.46 18.14Q16.68 17.23 16.26 15.97Q15.84 14.71 15.84 13.20ZM19.34 8.78L19.34 8.78Q18.31 10.25 18.31 13.20L18.31 13.20Q18.31 14.66 18.59 15.77Q18.86 16.87 19.34 17.60Q19.82 18.34 20.47 18.70Q21.12 19.06 21.89 19.06L21.89 19.06Q22.63 19.06 23.30 18.70Q23.98 18.34 24.46 17.60Q24.94 16.87 25.22 15.77Q25.51 14.66 25.51 13.20L25.51 13.20Q25.51 11.74 25.22 10.62Q24.94 9.50 24.44 8.77Q23.95 8.04 23.29 7.67Q22.63 7.30 21.89 7.30L21.89 7.30Q20.40 7.30 19.34 8.78ZM41.40 6.77L41.40 6.77L41.40 16.18Q41.40 17.78 41.47 18.43L41.47 18.43L43.37 18.67Q43.44 19.06 43.37 19.58L43.37 19.58Q41.62 19.66 39.72 19.92L39.72 19.92Q39.55 19.75 39.48 19.46L39.48 19.46L39.36 17.33Q38.35 18.62 37.28 19.34Q36.22 20.06 34.78 20.06L34.78 20.06Q33.31 20.06 32.32 19.32Q31.32 18.58 31.32 16.78L31.32 16.78L31.32 11.45Q31.32 8.71 31.25 7.94L31.25 7.94L29.35 7.70Q29.26 7.34 29.35 6.79L29.35 6.79Q31.01 6.67 33.48 6.29L33.48 6.29Q33.70 6.53 33.72 6.77L33.72 6.77Q33.60 7.39 33.60 15.58L33.60 15.58Q33.60 17.26 34.00 17.96Q34.39 18.67 35.47 18.67L35.47 18.67Q37.49 18.67 39.12 16.27L39.12 16.27L39.12 11.42Q39.12 8.71 39.05 7.94L39.05 7.94L37.15 7.70Q37.06 7.34 37.15 6.79L37.15 6.79Q38.59 6.70 41.16 6.29L41.16 6.29Q41.38 6.53 41.40 6.77ZM60.34 16.03L60.34 16.03Q60.74 16.30 60.96 16.94L60.96 16.94Q57.62 20.06 54.19 20.06L54.19 20.06Q51.84 20.06 50.09 19.21Q48.34 18.36 47.18 16.96Q46.03 15.55 45.47 13.76Q44.90 11.98 44.90 10.10L44.90 10.10Q44.90 8.21 45.55 6.40Q46.20 4.58 47.45 3.16Q48.70 1.73 50.53 0.86Q52.37 0 54.72 0L54.72 0Q57.82 0 60.48 1.44L60.48 1.44L60.48 6.05Q60.05 6.12 59.71 6.12L59.71 6.12Q59.35 6.12 59.11 6.05L59.11 6.05L58.34 2.04Q56.88 1.08 54.43 1.08L54.43 1.08Q52.92 1.08 51.71 1.76Q50.50 2.45 49.64 3.61Q48.79 4.78 48.34 6.35Q47.88 7.92 47.88 9.70L47.88 9.70Q47.88 11.59 48.32 13.20Q48.77 14.81 49.58 15.98Q50.40 17.16 51.56 17.82Q52.73 18.48 54.17 18.48L54.17 18.48Q55.90 18.48 57.50 17.81Q59.11 17.14 60.34 16.03ZM65.14 16.39L65.14 16.39Q65.14 17.64 65.59 18.16Q66.05 18.67 67.03 18.67L67.03 18.67Q67.75 18.67 68.63 18.23Q69.50 17.78 70.25 16.94L70.25 16.94L70.25 13.20Q67.78 13.34 66.46 14.08Q65.14 14.81 65.14 16.39ZM70.25 12.34L70.25 12.34L70.25 11.11Q70.25 9.07 69.78 8.15Q69.31 7.22 68.23 7.22L68.23 7.22Q67.13 7.22 66.46 7.93Q65.78 8.64 65.54 10.34L65.54 10.34Q64.78 10.51 64.42 10.51L64.42 10.51Q63.48 10.51 63.31 9.84L63.31 9.84Q63.31 8.21 64.73 7.25Q66.14 6.29 68.26 6.29L68.26 6.29Q70.58 6.29 71.56 7.24Q72.53 8.18 72.53 10.63L72.53 10.63L72.53 17.40Q72.53 18 72.60 18.43L72.60 18.43L74.50 18.67Q74.59 19.03 74.50 19.58L74.50 19.58Q72.79 19.66 70.87 19.92L70.87 19.92Q70.68 19.73 70.63 19.44L70.63 19.44L70.51 17.78Q68.52 20.06 66.07 20.06L66.07 20.06Q64.56 20.06 63.71 19.20Q62.86 18.34 62.86 16.87L62.86 16.87Q62.86 14.66 64.86 13.54Q66.86 12.41 70.25 12.34ZM85.42 15.41L85.42 11.02Q85.42 9.17 84.92 8.42Q84.43 7.68 83.28 7.68L83.28 7.68Q81.50 7.68 79.70 10.34L79.70 10.34L79.70 18.36L81.65 18.72Q81.74 19.10 81.65 19.68L81.65 19.68Q80.14 19.61 78.55 19.61L78.55 19.61Q77.45 19.61 75.43 19.66L75.43 19.66Q75.29 19.20 75.43 18.72L75.43 18.72L77.33 18.46Q77.42 17.14 77.42 15.41L77.42 15.41L77.42 8.83Q77.42 8.35 77.35 7.94L77.35 7.94L75.46 7.70Q75.36 7.34 75.46 6.79L75.46 6.79Q77.11 6.67 79.58 6.29L79.58 6.29Q79.80 6.53 79.82 6.77L79.82 6.77Q79.70 7.39 79.70 8.90L79.70 8.90Q81.60 6.29 83.98 6.29L83.98 6.29Q87.70 6.29 87.70 9.82L87.70 9.82L87.70 18.36L89.64 18.72Q89.74 19.10 89.64 19.68L89.64 19.68Q88.13 19.61 86.54 19.61L86.54 19.61Q85.44 19.61 83.42 19.66L83.42 19.66Q83.28 19.20 83.42 18.72L83.42 18.72L85.32 18.46Q85.42 17.14 85.42 15.41L85.42 15.41ZM97.61 16.66L97.61 16.66L97.63 16.66Q97.92 15.53 98.57 13.70L98.57 13.70L102.94 1.54L100.99 1.30Q100.90 0.94 100.99 0.41L100.99 0.41Q102.31 0.50 103.54 0.50L103.54 0.50Q104.59 0.50 106.13 0.43L106.13 0.43Q106.27 0.86 106.13 1.30L106.13 1.30L104.54 1.58Q104.16 2.16 103.58 3.72L103.58 3.72L97.39 20.30L96.55 20.30L89.45 1.54L87.50 1.30Q87.41 0.94 87.50 0.41L87.50 0.41Q88.82 0.50 90.91 0.50L90.91 0.50Q92.78 0.50 94.34 0.43L94.34 0.43Q94.49 0.86 94.34 1.30L94.34 1.30L92.35 1.58L96.74 13.70Q97.25 15.17 97.61 16.66ZM105.00 13.20L105.00 13.20Q105.00 11.76 105.42 10.50Q105.84 9.24 106.63 8.30Q107.42 7.37 108.54 6.83Q109.66 6.29 111.05 6.29L111.05 6.29Q112.42 6.29 113.54 6.83Q114.67 7.37 115.48 8.30Q116.28 9.24 116.71 10.50Q117.14 11.76 117.14 13.20L117.14 13.20Q117.14 14.69 116.70 15.94Q116.26 17.18 115.45 18.11Q114.65 19.03 113.52 19.55Q112.39 20.06 111.05 20.06L111.05 20.06Q109.63 20.06 108.52 19.56Q107.40 19.06 106.62 18.14Q105.84 17.23 105.42 15.97Q105.00 14.71 105.00 13.20ZM108.50 8.78L108.50 8.78Q107.47 10.25 107.47 13.20L107.47 13.20Q107.47 14.66 107.75 15.77Q108.02 16.87 108.50 17.60Q108.98 18.34 109.63 18.70Q110.28 19.06 111.05 19.06L111.05 19.06Q111.79 19.06 112.46 18.70Q113.14 18.34 113.62 17.60Q114.10 16.87 114.38 15.77Q114.67 14.66 114.67 13.20L114.67 13.20Q114.67 11.74 114.38 10.62Q114.10 9.50 113.60 8.77Q113.11 8.04 112.45 7.67Q111.79 7.30 111.05 7.30L111.05 7.30Q109.56 7.30 108.50 8.78ZM122.74 3.89L122.74 3.89L122.74 7.32L126.12 7.32Q126.17 7.61 126.17 7.75L126.17 7.75Q126.17 7.97 126.12 8.26L126.12 8.26L122.74 8.76L122.74 15.36Q122.74 17.14 123.06 17.87Q123.38 18.60 124.08 18.60L124.08 18.60Q124.70 18.60 126.02 18.10L126.02 18.10Q126.26 18.31 126.36 18.91L126.36 18.91Q125.64 19.34 125.27 19.55Q124.90 19.75 124.33 19.91Q123.77 20.06 123.14 20.06L123.14 20.06Q121.94 20.06 121.19 19.14Q120.43 18.22 120.43 16.32L120.43 16.32L120.43 8.47L118.75 8.26Q118.70 8.02 118.70 7.85L118.70 7.85Q118.70 7.66 118.75 7.32L118.75 7.32Q119.42 7.20 119.92 6.90Q120.41 6.60 120.74 6.06Q121.08 5.52 121.26 5.10Q121.44 4.68 121.70 3.89L121.70 3.89Q121.92 3.82 122.23 3.82L122.23 3.82Q122.52 3.82 122.74 3.89ZM137.78 12.82L137.78 12.82L130.25 12.82Q130.03 18.94 133.92 18.94L133.92 18.94Q135.58 18.94 137.30 17.47L137.30 17.47Q137.66 17.69 137.86 18.22L137.86 18.22Q136.20 20.06 133.66 20.06L133.66 20.06Q127.80 20.06 127.80 13.18L127.80 13.18Q127.80 9.91 129.53 8.10Q131.26 6.29 133.56 6.29L133.56 6.29Q136.08 6.29 137.18 8.04Q138.29 9.79 138.29 12.60L138.29 12.60Q138.05 12.79 137.78 12.82ZM133.51 7.25L133.51 7.25Q132.26 7.25 131.39 8.54Q130.51 9.84 130.32 11.86L130.32 11.86L133.30 11.86Q135.07 11.86 135.84 11.64L135.84 11.64Q135.84 9.67 135.24 8.46Q134.64 7.25 133.51 7.25Z" transform="translate(0, 51.845)"></path></svg>